<svg width="40" height="40" viewBox="0 0 40 40" fill="none" xmlns="http://www.w3.org/2000/svg">
<rect width="40" height="40" rx="20" fill="#A6D4FF"/>
<path d="M27.375 26.7375C27.05 25.7375 26.1125 25 25 25H23.75V21.25C23.75 20.9185 23.6183 20.6005 23.3839 20.3661C23.1495 20.1317 22.8315 20 22.5 20H15V17.5H17.5C17.8315 17.5 18.1495 17.3683 18.3839 17.1339C18.6183 16.8995 18.75 16.5815 18.75 16.25V13.75H21.25C21.913 13.75 22.5489 13.4866 23.0178 13.0178C23.4866 12.5489 23.75 11.913 23.75 11.25V10.7375C25.2456 11.3405 26.5728 12.2968 27.618 13.5248C28.6633 14.7527 29.3954 16.2157 29.7517 17.7884C30.108 19.3611 30.0779 20.9967 29.664 22.5553C29.2501 24.1138 28.4647 25.5488 27.375 26.7375ZM18.75 29.9125C13.8125 29.3 10 25.1 10 20C10 19.225 10.1 18.475 10.2625 17.7625L16.25 23.75V25C16.25 25.663 16.5134 26.2989 16.9822 26.7678C17.4511 27.2366 18.087 27.5 18.75 27.5M20 7.5C18.3585 7.5 16.733 7.82332 15.2165 8.45151C13.6999 9.07969 12.3219 10.0004 11.1612 11.1612C8.81696 13.5054 7.5 16.6848 7.5 20C7.5 23.3152 8.81696 26.4946 11.1612 28.8388C12.3219 29.9996 13.6999 30.9203 15.2165 31.5485C16.733 32.1767 18.3585 32.5 20 32.5C23.3152 32.5 26.4946 31.183 28.8388 28.8388C31.183 26.4946 32.5 23.3152 32.5 20C32.5 18.3585 32.1767 16.733 31.5485 15.2165C30.9203 13.6999 29.9996 12.3219 28.8388 11.1612C27.6781 10.0004 26.3001 9.07969 24.7835 8.45151C23.267 7.82332 21.6415 7.5 20 7.5Z" fill="#0066FF"/>
</svg>
