<svg width="40" height="40" viewBox="0 0 40 40" fill="none" xmlns="http://www.w3.org/2000/svg">
<rect width="40" height="40" rx="20" fill="#A6D4FF"/>
<path d="M20 20C20.6875 20 21.2762 19.755 21.7663 19.265C22.2554 18.7758 22.5 18.1875 22.5 17.5C22.5 16.8125 22.2554 16.2237 21.7663 15.7337C21.2762 15.2446 20.6875 15 20 15C19.3125 15 18.7242 15.2446 18.235 15.7337C17.745 16.2237 17.5 16.8125 17.5 17.5C17.5 18.1875 17.745 18.7758 18.235 19.265C18.7242 19.755 19.3125 20 20 20ZM20 32.5C16.6458 29.6458 14.1408 26.9946 12.485 24.5462C10.8283 22.0987 10 19.8333 10 17.75C10 14.625 11.0054 12.1354 13.0163 10.2812C15.0263 8.42708 17.3542 7.5 20 7.5C22.6458 7.5 24.9738 8.42708 26.9837 10.2812C28.9946 12.1354 30 14.625 30 17.75C30 19.8333 29.1721 22.0987 27.5163 24.5462C25.8596 26.9946 23.3542 29.6458 20 32.5Z" fill="#0066FF"/>
</svg>
