<svg width="1189" height="327" viewBox="0 0 1189 327" fill="none" xmlns="http://www.w3.org/2000/svg">
<path d="M67.632 11.656V26.12H43.824V101H25.904V26.12H2.096V11.656H67.632ZM98.627 41.096C100.931 37.3413 103.918 34.3973 107.587 32.264C111.342 30.1307 115.608 29.064 120.387 29.064V47.88H115.651C110.019 47.88 105.752 49.2027 102.851 51.848C100.035 54.4933 98.627 59.1013 98.627 65.672V101H80.707V30.088H98.627V41.096ZM127.849 65.288C127.849 58.12 129.257 51.7627 132.073 46.216C134.974 40.6693 138.857 36.4027 143.721 33.416C148.67 30.4293 154.174 28.936 160.233 28.936C165.524 28.936 170.132 30.0027 174.057 32.136C178.068 34.2693 181.268 36.9573 183.657 40.2V30.088H201.705V101H183.657V90.632C181.353 93.96 178.153 96.7333 174.057 98.952C170.046 101.085 165.396 102.152 160.105 102.152C154.132 102.152 148.67 100.616 143.721 97.544C138.857 94.472 134.974 90.1627 132.073 84.616C129.257 78.984 127.849 72.5413 127.849 65.288ZM183.657 65.544C183.657 61.192 182.804 57.48 181.097 54.408C179.39 51.2507 177.086 48.8613 174.185 47.24C171.284 45.5333 168.169 44.68 164.841 44.68C161.513 44.68 158.441 45.4907 155.625 47.112C152.809 48.7333 150.505 51.1227 148.713 54.28C147.006 57.352 146.153 61.0213 146.153 65.288C146.153 69.5547 147.006 73.3093 148.713 76.552C150.505 79.7093 152.809 82.1413 155.625 83.848C158.526 85.5547 161.598 86.408 164.841 86.408C168.169 86.408 171.284 85.5973 174.185 83.976C177.086 82.2693 179.39 79.88 181.097 76.808C182.804 73.6507 183.657 69.896 183.657 65.544ZM258.503 29.064C266.951 29.064 273.778 31.752 278.983 37.128C284.188 42.4187 286.791 49.8427 286.791 59.4V101H268.871V61.832C268.871 56.2 267.463 51.8907 264.647 48.904C261.831 45.832 257.991 44.296 253.127 44.296C248.178 44.296 244.252 45.832 241.351 48.904C238.535 51.8907 237.127 56.2 237.127 61.832V101H219.207V30.088H237.127V38.92C239.516 35.848 242.546 33.4587 246.215 31.752C249.97 29.96 254.066 29.064 258.503 29.064ZM330.968 102.152C325.165 102.152 319.96 101.128 315.352 99.08C310.744 96.9467 307.075 94.088 304.344 90.504C301.699 86.92 300.248 82.952 299.992 78.6H318.04C318.381 81.3307 319.704 83.592 322.008 85.384C324.397 87.176 327.341 88.072 330.84 88.072C334.253 88.072 336.899 87.3893 338.776 86.024C340.739 84.6587 341.72 82.9093 341.72 80.776C341.72 78.472 340.525 76.7653 338.136 75.656C335.832 74.4613 332.12 73.1813 327 71.816C321.709 70.536 317.357 69.2133 313.944 67.848C310.616 66.4827 307.715 64.392 305.24 61.576C302.851 58.76 301.656 54.9627 301.656 50.184C301.656 46.2587 302.765 42.6747 304.984 39.432C307.288 36.1893 310.531 33.6293 314.712 31.752C318.979 29.8747 323.971 28.936 329.688 28.936C338.136 28.936 344.877 31.0693 349.912 35.336C354.947 39.5173 357.72 45.192 358.232 52.36H341.08C340.824 49.544 339.629 47.3253 337.496 45.704C335.448 43.9973 332.675 43.144 329.176 43.144C325.933 43.144 323.416 43.7413 321.624 44.936C319.917 46.1307 319.064 47.7947 319.064 49.928C319.064 52.3173 320.259 54.152 322.648 55.432C325.037 56.6267 328.749 57.864 333.784 59.144C338.904 60.424 343.128 61.7467 346.456 63.112C349.784 64.4773 352.643 66.6107 355.032 69.512C357.507 72.328 358.787 76.0827 358.872 80.776C358.872 84.872 357.72 88.5413 355.416 91.784C353.197 95.0267 349.955 97.5867 345.688 99.464C341.507 101.256 336.6 102.152 330.968 102.152ZM391.502 40.328C393.806 37.0853 396.963 34.3973 400.974 32.264C405.07 30.0453 409.721 28.936 414.926 28.936C420.985 28.936 426.446 30.4293 431.31 33.416C436.259 36.4027 440.142 40.6693 442.958 46.216C445.859 51.6773 447.31 58.0347 447.31 65.288C447.31 72.5413 445.859 78.984 442.958 84.616C440.142 90.1627 436.259 94.472 431.31 97.544C426.446 100.616 420.985 102.152 414.926 102.152C409.721 102.152 405.113 101.085 401.102 98.952C397.177 96.8187 393.977 94.1307 391.502 90.888V134.792H373.582V30.088H391.502V40.328ZM429.006 65.288C429.006 61.0213 428.11 57.352 426.318 54.28C424.611 51.1227 422.307 48.7333 419.406 47.112C416.59 45.4907 413.518 44.68 410.19 44.68C406.947 44.68 403.875 45.5333 400.974 47.24C398.158 48.8613 395.854 51.2507 394.062 54.408C392.355 57.5653 391.502 61.2773 391.502 65.544C391.502 69.8107 392.355 73.5227 394.062 76.68C395.854 79.8373 398.158 82.2693 400.974 83.976C403.875 85.5973 406.947 86.408 410.19 86.408C413.518 86.408 416.59 85.5547 419.406 83.848C422.307 82.1413 424.611 79.7093 426.318 76.552C428.11 73.3947 429.006 69.64 429.006 65.288ZM491.82 102.152C484.993 102.152 478.849 100.659 473.388 97.672C467.927 94.6 463.617 90.2907 460.46 84.744C457.388 79.1973 455.852 72.7973 455.852 65.544C455.852 58.2907 457.431 51.8907 460.588 46.344C463.831 40.7973 468.225 36.5307 473.772 33.544C479.319 30.472 485.505 28.936 492.332 28.936C499.159 28.936 505.345 30.472 510.892 33.544C516.439 36.5307 520.791 40.7973 523.948 46.344C527.191 51.8907 528.812 58.2907 528.812 65.544C528.812 72.7973 527.148 79.1973 523.82 84.744C520.577 90.2907 516.14 94.6 510.508 97.672C504.961 100.659 498.732 102.152 491.82 102.152ZM491.82 86.536C495.063 86.536 498.092 85.768 500.908 84.232C503.809 82.6107 506.113 80.2213 507.82 77.064C509.527 73.9067 510.38 70.0667 510.38 65.544C510.38 58.8027 508.588 53.64 505.004 50.056C501.505 46.3867 497.196 44.552 492.076 44.552C486.956 44.552 482.647 46.3867 479.148 50.056C475.735 53.64 474.028 58.8027 474.028 65.544C474.028 72.2853 475.692 77.4907 479.02 81.16C482.433 84.744 486.7 86.536 491.82 86.536ZM559.877 41.096C562.181 37.3413 565.168 34.3973 568.837 32.264C572.592 30.1307 576.858 29.064 581.637 29.064V47.88H576.901C571.269 47.88 567.002 49.2027 564.101 51.848C561.285 54.4933 559.877 59.1013 559.877 65.672V101H541.957V30.088H559.877V41.096ZM614.571 44.808V79.112C614.571 81.5013 615.126 83.2507 616.235 84.36C617.43 85.384 619.392 85.896 622.123 85.896H630.443V101H619.179C604.075 101 596.523 93.6613 596.523 78.984V44.808H588.075V30.088H596.523V12.552H614.571V30.088H630.443V44.808H614.571ZM39.344 236.808H26.928V293H8.752V236.808H0.688V222.088H8.752V218.504C8.752 209.8 11.2267 203.4 16.176 199.304C21.1253 195.208 28.592 193.288 38.576 193.544V208.648C34.224 208.563 31.1947 209.288 29.488 210.824C27.7813 212.36 26.928 215.133 26.928 219.144V222.088H39.344V236.808ZM82.445 294.152C75.6183 294.152 69.4743 292.659 64.013 289.672C58.5517 286.6 54.2423 282.291 51.085 276.744C48.013 271.197 46.477 264.797 46.477 257.544C46.477 250.291 48.0557 243.891 51.213 238.344C54.4557 232.797 58.8503 228.531 64.397 225.544C69.9437 222.472 76.1303 220.936 82.957 220.936C89.7837 220.936 95.9703 222.472 101.517 225.544C107.064 228.531 111.416 232.797 114.573 238.344C117.816 243.891 119.437 250.291 119.437 257.544C119.437 264.797 117.773 271.197 114.445 276.744C111.202 282.291 106.765 286.6 101.133 289.672C95.5863 292.659 89.357 294.152 82.445 294.152ZM82.445 278.536C85.6877 278.536 88.717 277.768 91.533 276.232C94.4343 274.611 96.7383 272.221 98.445 269.064C100.152 265.907 101.005 262.067 101.005 257.544C101.005 250.803 99.213 245.64 95.629 242.056C92.1303 238.387 87.821 236.552 82.701 236.552C77.581 236.552 73.2717 238.387 69.773 242.056C66.3597 245.64 64.653 250.803 64.653 257.544C64.653 264.285 66.317 269.491 69.645 273.16C73.0583 276.744 77.325 278.536 82.445 278.536ZM150.502 233.096C152.806 229.341 155.793 226.397 159.462 224.264C163.217 222.131 167.483 221.064 172.262 221.064V239.88H167.526C161.894 239.88 157.627 241.203 154.726 243.848C151.91 246.493 150.502 251.101 150.502 257.672V293H132.582V222.088H150.502V233.096ZM282.672 222.088L238.768 326.536H219.696L235.056 291.208L206.64 222.088H226.736L245.04 271.624L263.6 222.088H282.672ZM323.82 294.152C316.993 294.152 310.849 292.659 305.388 289.672C299.927 286.6 295.617 282.291 292.46 276.744C289.388 271.197 287.852 264.797 287.852 257.544C287.852 250.291 289.431 243.891 292.588 238.344C295.831 232.797 300.225 228.531 305.772 225.544C311.319 222.472 317.505 220.936 324.332 220.936C331.159 220.936 337.345 222.472 342.892 225.544C348.439 228.531 352.791 232.797 355.948 238.344C359.191 243.891 360.812 250.291 360.812 257.544C360.812 264.797 359.148 271.197 355.82 276.744C352.577 282.291 348.14 286.6 342.508 289.672C336.961 292.659 330.732 294.152 323.82 294.152ZM323.82 278.536C327.063 278.536 330.092 277.768 332.908 276.232C335.809 274.611 338.113 272.221 339.82 269.064C341.527 265.907 342.38 262.067 342.38 257.544C342.38 250.803 340.588 245.64 337.004 242.056C333.505 238.387 329.196 236.552 324.076 236.552C318.956 236.552 314.647 238.387 311.148 242.056C307.735 245.64 306.028 250.803 306.028 257.544C306.028 264.285 307.692 269.491 311.02 273.16C314.433 276.744 318.7 278.536 323.82 278.536ZM440.901 222.088V293H422.853V284.04C420.549 287.112 417.52 289.544 413.765 291.336C410.096 293.043 406.085 293.896 401.733 293.896C396.186 293.896 391.28 292.744 387.013 290.44C382.746 288.051 379.376 284.595 376.901 280.072C374.512 275.464 373.317 270.003 373.317 263.688V222.088H391.237V261.128C391.237 266.76 392.645 271.112 395.461 274.184C398.277 277.171 402.117 278.664 406.981 278.664C411.93 278.664 415.813 277.171 418.629 274.184C421.445 271.112 422.853 266.76 422.853 261.128V222.088H440.901Z" fill="black"/>
<path d="M704.68 101.896C698.451 101.896 692.819 100.829 687.784 98.696C682.835 96.5627 678.909 93.4907 676.008 89.48C673.107 85.4693 671.613 80.7333 671.528 75.272H690.728C690.984 78.9413 692.264 81.8427 694.568 83.976C696.957 86.1093 700.2 87.176 704.296 87.176C708.477 87.176 711.763 86.1947 714.152 84.232C716.541 82.184 717.736 79.5387 717.736 76.296C717.736 73.6507 716.925 71.4747 715.304 69.768C713.683 68.0613 711.635 66.7387 709.16 65.8C706.771 64.776 703.443 63.6667 699.176 62.472C693.373 60.7653 688.637 59.1013 684.968 57.48C681.384 55.7733 678.269 53.256 675.624 49.928C673.064 46.5147 671.784 41.992 671.784 36.36C671.784 31.0693 673.107 26.4613 675.752 22.536C678.397 18.6107 682.109 15.624 686.888 13.576C691.667 11.4427 697.128 10.376 703.272 10.376C712.488 10.376 719.955 12.6373 725.672 17.16C731.475 21.5973 734.675 27.8267 735.272 35.848H715.56C715.389 32.776 714.067 30.2587 711.592 28.296C709.203 26.248 706.003 25.224 701.992 25.224C698.493 25.224 695.677 26.12 693.544 27.912C691.496 29.704 690.472 32.3067 690.472 35.72C690.472 38.1093 691.24 40.1147 692.776 41.736C694.397 43.272 696.36 44.552 698.664 45.576C701.053 46.5147 704.381 47.624 708.648 48.904C714.451 50.6107 719.187 52.3173 722.856 54.024C726.525 55.7307 729.683 58.2907 732.328 61.704C734.973 65.1173 736.296 69.5973 736.296 75.144C736.296 79.9227 735.059 84.36 732.584 88.456C730.109 92.552 726.483 95.8373 721.704 98.312C716.925 100.701 711.251 101.896 704.68 101.896ZM783.32 102.152C776.493 102.152 770.349 100.659 764.888 97.672C759.427 94.6 755.117 90.2907 751.96 84.744C748.888 79.1973 747.352 72.7973 747.352 65.544C747.352 58.2907 748.931 51.8907 752.088 46.344C755.331 40.7973 759.725 36.5307 765.272 33.544C770.819 30.472 777.005 28.936 783.832 28.936C790.659 28.936 796.845 30.472 802.392 33.544C807.939 36.5307 812.291 40.7973 815.448 46.344C818.691 51.8907 820.312 58.2907 820.312 65.544C820.312 72.7973 818.648 79.1973 815.32 84.744C812.077 90.2907 807.64 94.6 802.008 97.672C796.461 100.659 790.232 102.152 783.32 102.152ZM783.32 86.536C786.563 86.536 789.592 85.768 792.408 84.232C795.309 82.6107 797.613 80.2213 799.32 77.064C801.027 73.9067 801.88 70.0667 801.88 65.544C801.88 58.8027 800.088 53.64 796.504 50.056C793.005 46.3867 788.696 44.552 783.576 44.552C778.456 44.552 774.147 46.3867 770.648 50.056C767.235 53.64 765.528 58.8027 765.528 65.544C765.528 72.2853 767.192 77.4907 770.52 81.16C773.933 84.744 778.2 86.536 783.32 86.536ZM851.377 6.28V101H833.457V6.28H851.377ZM936.026 30.088V101H917.978V92.04C915.674 95.112 912.645 97.544 908.89 99.336C905.221 101.043 901.21 101.896 896.858 101.896C891.311 101.896 886.405 100.744 882.138 98.44C877.871 96.0507 874.501 92.5947 872.026 88.072C869.637 83.464 868.442 78.0027 868.442 71.688V30.088H886.362V69.128C886.362 74.76 887.77 79.112 890.586 82.184C893.402 85.1707 897.242 86.664 902.106 86.664C907.055 86.664 910.938 85.1707 913.754 82.184C916.57 79.112 917.978 74.76 917.978 69.128V30.088H936.026ZM974.571 44.808V79.112C974.571 81.5013 975.126 83.2507 976.235 84.36C977.43 85.384 979.392 85.896 982.123 85.896H990.443V101H979.179C964.075 101 956.523 93.6613 956.523 78.984V44.808H948.075V30.088H956.523V12.552H974.571V30.088H990.443V44.808H974.571ZM1012.42 21.64C1009.26 21.64 1006.62 20.6587 1004.48 18.696C1002.44 16.648 1001.41 14.1307 1001.41 11.144C1001.41 8.15733 1002.44 5.68266 1004.48 3.71999C1006.62 1.67199 1009.26 0.647995 1012.42 0.647995C1015.58 0.647995 1018.18 1.67199 1020.23 3.71999C1022.36 5.68266 1023.43 8.15733 1023.43 11.144C1023.43 14.1307 1022.36 16.648 1020.23 18.696C1018.18 20.6587 1015.58 21.64 1012.42 21.64ZM1021.25 30.088V101H1003.33V30.088H1021.25ZM1070.45 102.152C1063.62 102.152 1057.47 100.659 1052.01 97.672C1046.55 94.6 1042.24 90.2907 1039.09 84.744C1036.01 79.1973 1034.48 72.7973 1034.48 65.544C1034.48 58.2907 1036.06 51.8907 1039.21 46.344C1042.46 40.7973 1046.85 36.5307 1052.4 33.544C1057.94 30.472 1064.13 28.936 1070.96 28.936C1077.78 28.936 1083.97 30.472 1089.52 33.544C1095.06 36.5307 1099.42 40.7973 1102.57 46.344C1105.82 51.8907 1107.44 58.2907 1107.44 65.544C1107.44 72.7973 1105.77 79.1973 1102.44 84.744C1099.2 90.2907 1094.77 94.6 1089.13 97.672C1083.59 100.659 1077.36 102.152 1070.45 102.152ZM1070.45 86.536C1073.69 86.536 1076.72 85.768 1079.53 84.232C1082.43 82.6107 1084.74 80.2213 1086.45 77.064C1088.15 73.9067 1089.01 70.0667 1089.01 65.544C1089.01 58.8027 1087.21 53.64 1083.63 50.056C1080.13 46.3867 1075.82 44.552 1070.7 44.552C1065.58 44.552 1061.27 46.3867 1057.77 50.056C1054.36 53.64 1052.65 58.8027 1052.65 65.544C1052.65 72.2853 1054.32 77.4907 1057.65 81.16C1061.06 84.744 1065.33 86.536 1070.45 86.536ZM1159.88 29.064C1168.33 29.064 1175.15 31.752 1180.36 37.128C1185.56 42.4187 1188.17 49.8427 1188.17 59.4V101H1170.25V61.832C1170.25 56.2 1168.84 51.8907 1166.02 48.904C1163.21 45.832 1159.37 44.296 1154.5 44.296C1149.55 44.296 1145.63 45.832 1142.73 48.904C1139.91 51.8907 1138.5 56.2 1138.5 61.832V101H1120.58V30.088H1138.5V38.92C1140.89 35.848 1143.92 33.4587 1147.59 31.752C1151.34 29.96 1155.44 29.064 1159.88 29.064Z" fill="#0066FF"/>
</svg>
