<svg width="40" height="40" viewBox="0 0 40 40" fill="none" xmlns="http://www.w3.org/2000/svg">
<rect width="40" height="40" rx="20" fill="#A6D4FF"/>
<path d="M31.9531 13.2969H31.9414C31.7731 13.0116 31.5352 12.7737 31.25 12.6054L20.9375 6.78123C20.656 6.62528 20.3394 6.54346 20.0176 6.54346C19.6957 6.54346 19.3792 6.62528 19.0976 6.78123L8.78515 12.582C8.49396 12.7465 8.2514 12.985 8.08202 13.2734C8.08202 13.275 8.08172 13.2765 8.08113 13.2779C8.08054 13.2793 8.07968 13.2806 8.07859 13.2817C8.0775 13.2828 8.07621 13.2837 8.07479 13.2842C8.07337 13.2848 8.07184 13.2851 8.0703 13.2851V13.3086C7.90623 13.585 7.82111 13.9012 7.82421 14.2226V25.7773C7.8248 26.1114 7.91407 26.4393 8.08291 26.7275C8.25174 27.0158 8.49407 27.254 8.78515 27.4179L19.0976 33.2187C19.3573 33.3603 19.6459 33.4405 19.9414 33.4531H20.1055C20.3969 33.4388 20.6814 33.3586 20.9375 33.2187L31.25 27.4179C31.5381 27.2516 31.7774 27.0125 31.944 26.7246C32.1106 26.4366 32.1986 26.11 32.1992 25.7773V14.2226C32.2009 13.8977 32.116 13.5781 31.9531 13.2969ZM20.0117 8.42185L29.3633 13.6719L25.7656 15.7109L16.3203 10.4961L20.0117 8.42185ZM20.1172 18.9219L10.6836 13.6719L14.3984 11.5859L23.8555 16.8008L20.1172 18.9219ZM20.9609 31.0508L21.0547 20.5508L24.8164 18.4062V22.8711C24.8164 23.1197 24.9152 23.3582 25.091 23.534C25.2668 23.7098 25.5053 23.8086 25.7539 23.8086C26.0025 23.8086 26.241 23.7098 26.4168 23.534C26.5926 23.3582 26.6914 23.1197 26.6914 22.8711V17.3398L30.3242 15.2773V25.7773L20.9609 31.0508Z" fill="#0066FF"/>
</svg>
