<svg width="130" height="34" viewBox="0 0 130 34" fill="none" xmlns="http://www.w3.org/2000/svg">
<path d="M69.8389 23.5795C65.1392 23.5795 62.7894 21.3863 62.7894 17C62.7894 12.6137 65.1392 10.4205 69.8389 10.4205C74.5385 10.4205 76.8884 12.6137 76.8884 17C76.8884 21.3863 74.5385 23.5795 69.8389 23.5795ZM69.8389 0.0812531C63.5413 0.0812531 58.7321 1.56948 55.411 4.54592C52.1839 7.45971 50.5704 11.6111 50.5704 17C50.5704 22.3889 52.1839 26.5403 55.411 29.4541C58.7321 32.4305 63.5413 33.9188 69.8389 33.9188C76.1364 33.9188 80.9458 32.4305 84.2668 29.4541C87.4939 26.5403 89.1075 22.3889 89.1075 17C89.1075 11.6111 87.4939 7.45971 84.2668 4.54592C80.9458 1.56948 76.1364 0.0812531 69.8389 0.0812531Z" fill="#0066FF"/>
<path d="M110.731 23.5795C106.032 23.5795 103.682 21.3863 103.682 17C103.682 12.6137 106.032 10.4205 110.731 10.4205C115.431 10.4205 117.781 12.6137 117.781 17C117.781 21.3863 115.431 23.5795 110.731 23.5795ZM110.731 0.0812531C104.434 0.0812531 99.6246 1.56948 96.3035 4.54592C93.0764 7.45971 91.4628 11.6111 91.4628 17C91.4628 22.3889 93.0764 26.5403 96.3035 29.4541C99.6246 32.4305 104.434 33.9188 110.731 33.9188C117.029 33.9188 121.838 32.4305 125.159 29.4541C128.386 26.5403 130 22.3889 130 17C130 11.6111 128.386 7.45971 125.159 4.54592C121.838 1.56948 117.029 0.0812531 110.731 0.0812531Z" fill="#0066FF"/>
<path d="M35.4611 11.3681V33.4488H47.0221V0.573028H33.349L21.4545 11.3681H33.349H35.4611Z" fill="#0066FF"/>
<path d="M12.5615 33.4488H0L10.6125 22.7131H23.2745C23.2745 22.7131 19.0689 26.9085 16.3825 29.6051C14.8887 31.1046 12.5615 33.4488 12.5615 33.4488Z" fill="#0066FF"/>
<path d="M33.0652 20.4291H12.974L19.63 13.6499L33.0652 13.6465V20.4291Z" fill="#0066FF"/>
</svg>
